<svg version="1.1" id="Layer_1" xmlns="http://www.w3.org/2000/svg" xmlns:xlink="http://www.w3.org/1999/xlink" x="0px" y="0px"
	 width="100%" viewBox="0 0 800 871" enable-background="new 0 0 800 871" xml:space="preserve">
<path fill="#000000" opacity="1.000000" stroke="none" 
	d="
M801.000000,314.000000 
	C801.000000,500.333252 801.000000,686.166504 801.000000,871.999817 
	C534.333496,871.999878 267.667053,871.999878 1.000425,871.999939 
	C1.000283,581.666992 1.000283,291.333954 1.000142,1.000698 
	C267.666229,1.000465 534.332458,1.000465 800.999390,1.000232 
	C801.000000,105.166664 801.000000,209.333328 801.000000,314.000000 
M391.965576,731.127563 
	C392.347565,727.152893 392.729553,723.178284 393.832306,719.103760 
	C394.887268,718.618774 395.942261,718.133789 397.061859,718.610413 
	C396.120697,724.972168 395.486816,731.400635 394.123962,737.670715 
	C393.296814,741.476196 390.258575,743.253052 386.266846,744.332642 
	C367.515930,749.404114 348.848450,754.791748 330.210846,760.269653 
	C325.075134,761.779175 320.145233,763.988770 314.617950,766.066101 
	C324.027954,775.945862 328.629730,787.108276 329.562622,799.731201 
	C330.726593,799.823914 331.392334,799.976685 332.036591,799.912598 
	C337.824982,799.337158 343.605743,798.682800 349.396027,798.127686 
	C388.015503,794.424805 425.704193,786.961365 460.840057,769.736084 
	C465.954285,767.228760 470.405640,763.272644 474.889832,759.648132 
	C475.947632,758.793152 476.618134,756.363892 476.238892,755.000427 
	C473.345001,744.596436 470.401123,734.192017 466.977814,723.953308 
	C462.828705,711.543762 456.605438,700.160522 448.143066,690.128540 
	C446.989563,688.761108 444.101044,687.052368 443.179352,687.570740 
	C432.845245,693.381653 421.445801,693.153381 410.210144,694.193970 
	C405.519165,694.628479 400.927521,696.135132 396.997559,696.998962 
	C396.997559,704.190125 396.997559,710.313416 396.464813,716.027100 
	C395.320068,715.562805 394.175354,715.098572 393.109833,713.632751 
	C393.068878,710.806946 393.194000,707.965149 392.925446,705.161133 
	C392.760864,703.443359 392.534393,701.054626 391.406891,700.216248 
	C384.394196,695.001343 377.485779,689.449524 369.818268,685.371765 
	C363.288300,681.899048 356.654541,683.623779 352.696930,689.964661 
	C348.756348,696.278198 346.717224,703.778625 343.339813,711.063599 
	C343.253754,712.293518 343.167725,713.523438 342.793121,715.482788 
	C342.172668,718.007385 341.552185,720.532043 340.270782,723.185120 
	C339.689697,724.406189 339.108612,725.627319 338.108063,727.451111 
	C334.046478,730.270752 329.984894,733.090393 325.227936,735.970886 
	C323.842163,736.458923 322.456421,736.946899 320.234650,737.594238 
	C313.095825,739.718689 305.957001,741.843079 298.344421,744.067505 
	C297.786774,744.317261 297.229126,744.567078 295.821960,744.796021 
	C292.075928,746.222717 288.329865,747.649414 284.893829,748.958069 
	C292.676941,752.878845 300.324310,756.431763 307.635925,760.576904 
	C310.193970,762.027100 312.025024,762.526855 314.852692,761.504517 
	C338.094696,753.101868 361.329590,744.659607 385.716034,739.966003 
	C387.397949,739.642395 388.720215,737.450195 390.786652,735.949463 
	C391.136292,734.618042 391.485931,733.286682 391.965576,731.127563 
M272.450378,719.162476 
	C271.945526,719.664673 271.440674,720.166809 270.246368,720.890747 
	C265.460968,723.255066 260.675598,725.619385 255.109406,727.995972 
	C253.378708,728.547424 251.648010,729.098877 249.089432,729.784851 
	C229.882309,732.671814 210.675201,735.558777 190.968506,738.520813 
	C199.814316,741.977356 205.614395,748.198364 208.183044,757.804077 
	C223.859787,750.636780 239.828796,747.395874 257.153992,746.772949 
	C261.772705,747.058411 266.391449,747.343872 271.878937,747.749695 
	C275.366791,747.083862 278.968994,746.772400 282.322479,745.690308 
	C296.050079,741.260437 309.711731,736.624878 323.377441,732.005127 
	C330.518799,729.590942 338.466400,718.051147 338.092072,710.841309 
	C337.719055,703.656372 333.983734,698.404846 327.779602,695.479187 
	C321.971802,692.740356 315.733459,690.816772 309.549103,688.994080 
	C295.839874,684.953735 280.948517,683.739502 270.372803,671.200012 
	C269.476929,678.178711 270.690979,683.834900 273.967957,689.044800 
	C277.690918,694.963806 279.987366,701.252014 279.299225,708.515625 
	C279.299225,708.515625 279.256653,708.648254 278.943359,709.338379 
	C276.944366,712.539307 274.945374,715.740234 272.450378,719.162476 
M10.124718,379.183136 
	C9.855452,379.274841 9.586185,379.366547 9.316900,379.458282 
	C9.516630,379.664307 9.716359,379.870361 9.898381,380.831177 
	C17.480947,400.835968 29.087227,418.109497 45.563007,431.806396 
	C58.397720,442.476379 73.377464,448.059540 90.168846,447.889160 
	C102.021355,447.768921 112.233665,442.310181 122.552864,437.190796 
	C127.722702,434.626038 133.284302,432.840302 138.701553,430.788940 
	C141.962662,429.554047 144.657150,430.482391 147.435974,432.646271 
	C155.942444,439.270386 164.666626,445.614929 173.157516,451.957184 
	C175.292313,450.739624 177.014877,449.757172 178.912933,448.674622 
	C175.588501,442.510284 172.751297,436.404907 174.478210,429.191772 
	C174.684265,428.331055 173.130264,426.755280 172.065628,425.934296 
	C167.187195,422.172485 162.336578,418.341125 157.188324,414.974640 
	C153.840240,412.785339 153.377228,410.295074 154.751892,406.955750 
	C156.774933,402.041443 158.855972,397.149902 160.801666,392.205109 
	C164.907501,381.770630 165.466370,371.295654 159.475388,361.458954 
	C156.391907,356.396118 152.555191,351.639252 148.352325,347.453552 
	C144.066849,343.185547 138.286606,339.979156 145.007401,332.915985 
	C129.310562,325.672089 114.359268,318.772247 98.274834,311.349487 
	C102.975197,319.045044 107.338501,325.340363 110.802429,332.096771 
	C114.321609,338.960938 116.953766,346.279877 120.083984,353.658020 
	C124.268723,351.584778 128.330429,349.289612 132.631927,347.607727 
	C133.984100,347.079041 136.916428,347.634155 137.529343,348.653198 
	C141.445511,355.164368 145.797104,361.628418 148.328812,368.707581 
	C152.196747,379.523071 147.991333,389.164551 138.668854,395.002380 
	C136.034241,396.652161 134.055801,396.654846 131.521820,394.777649 
	C123.362144,388.733032 115.123978,382.784180 106.732300,377.068207 
	C103.572281,374.915771 103.242004,372.574646 104.621040,369.433289 
	C105.657318,367.072754 106.616158,364.678223 107.640495,362.224548 
	C98.760605,359.640747 90.131844,357.947174 82.204002,354.595612 
	C74.126595,351.180847 67.361641,344.847748 57.535213,342.426147 
	C63.685997,359.453644 75.808640,372.707916 78.291283,390.724792 
	C80.348091,389.395905 82.181267,388.545135 83.588966,387.236633 
	C87.184036,383.894867 90.754311,384.276672 94.871910,386.306671 
	C105.398430,391.496338 113.004929,399.708923 119.233635,409.343994 
	C119.882446,410.347656 119.685860,412.679626 118.932884,413.684448 
	C112.670479,422.041107 104.929184,428.311920 94.276138,430.224976 
	C80.201988,432.752319 67.708809,427.817596 55.491684,421.890686 
	C54.407425,421.364685 53.463356,418.752167 53.799397,417.457977 
	C54.577400,414.461609 56.080994,411.629913 57.478809,408.825348 
	C58.701614,406.371979 60.181599,404.046753 61.162334,402.337158 
	C51.359978,398.652130 41.896591,395.591919 32.872677,391.550415 
	C25.160240,388.096283 17.952126,383.516083 10.124718,379.183136 
M233.645676,391.824860 
	C254.077118,404.675293 274.608246,417.372803 294.825897,430.551208 
	C297.659210,432.398041 300.163025,436.389038 300.758514,439.752411 
	C303.649475,456.080109 288.216095,470.806213 271.965210,467.765167 
	C270.152100,467.425842 268.324677,467.162811 265.181488,466.647705 
	C272.130463,474.564728 273.694397,482.620728 271.800110,492.021698 
	C273.745728,490.935577 275.029327,490.225525 276.306915,489.504883 
	C288.511780,482.620361 301.434662,479.263397 315.571655,480.796021 
	C329.986572,482.358795 342.291901,488.551422 353.556427,497.218872 
	C364.757935,505.837799 377.135529,511.120605 391.492798,509.759399 
	C397.569336,509.183289 403.512421,507.271912 409.550781,506.154388 
	C410.626526,505.955261 411.872162,506.673889 413.039307,506.968750 
	C412.246735,507.999176 411.655945,509.617004 410.630463,509.969208 
	C400.268250,513.527893 389.666199,515.152100 378.703552,513.377502 
	C367.862427,511.622589 358.675415,506.424225 350.123932,499.857971 
	C336.140717,489.120972 320.641174,483.136871 302.735077,484.981415 
	C291.478119,486.141052 281.459900,490.383423 272.241699,497.354828 
	C280.559631,501.907959 283.425629,507.681366 281.167938,516.234741 
	C277.203339,531.254822 266.183014,539.233704 252.272156,544.017761 
	C249.815292,544.862671 247.206833,545.266846 244.756027,545.853577 
	C244.719711,559.047607 251.100372,568.404724 262.991760,573.205811 
	C272.511902,577.049500 282.446808,577.258667 292.486328,577.026123 
	C293.631195,576.999512 294.803162,578.144409 295.962585,578.746094 
	C294.889709,579.502441 293.818604,580.905396 292.743622,580.908325 
	C286.596832,580.925049 280.385742,581.081726 274.320068,580.268799 
	C268.584381,579.500183 263.001038,577.594482 256.755432,576.040771 
	C259.722321,579.300842 262.163361,582.242859 264.873383,584.911743 
	C272.782104,592.700500 281.146118,600.003235 292.736084,601.317566 
	C299.321808,602.064514 306.030304,601.673828 312.667633,602.064453 
	C314.128662,602.150452 315.522705,603.375366 316.947571,604.075806 
	C315.473816,604.739319 314.025818,605.896423 312.521545,605.974915 
	C307.772461,606.222717 303.002350,606.066345 296.875214,606.066345 
	C311.524811,615.934082 325.712219,621.813232 342.395691,617.359192 
	C359.740387,612.728455 377.001678,607.774231 394.402924,603.370483 
	C407.918854,599.950012 421.973053,598.286194 435.123535,593.865112 
	C468.067505,582.789490 483.019714,561.342834 481.717987,526.681335 
	C480.807739,502.443420 476.275238,478.757874 463.734436,457.326691 
	C461.637787,453.743652 459.794220,449.984253 458.151031,446.169617 
	C453.688599,435.809967 453.930725,425.321716 460.406677,416.163849 
	C465.826965,408.498840 472.276062,401.344879 479.234467,395.027344 
	C495.730408,380.050629 509.667206,363.409363 518.256836,342.590576 
	C528.033875,318.894043 530.420166,293.978821 530.780090,268.735992 
	C530.835083,264.877258 532.005432,262.801575 535.373352,260.958435 
	C555.802490,249.778397 574.729797,236.514420 590.429749,219.131897 
	C620.998047,185.287735 630.442627,146.852585 613.927429,103.596085 
	C603.623901,76.609192 586.867126,54.259647 561.617065,39.376381 
	C556.416992,36.311260 549.821777,35.393166 543.734192,34.146877 
	C540.720093,33.529800 539.119934,35.449181 540.582214,38.825954 
	C542.631287,43.557728 544.602173,48.326336 546.480408,53.128517 
	C550.837341,64.268082 556.006348,75.187164 559.235168,86.649445 
	C564.933838,106.879074 557.993530,122.021034 539.004578,131.193863 
	C530.562561,135.271896 521.138245,137.296570 512.209534,140.396561 
	C508.552063,141.666412 506.224091,140.453995 503.448730,137.872635 
	C495.787323,130.746841 488.162628,123.407555 479.631866,117.423637 
	C455.228027,100.305435 427.783539,90.771164 398.447662,85.886818 
	C367.736206,80.773445 338.459686,84.538719 310.392273,97.912331 
	C306.200958,99.909424 302.247498,102.507355 297.912262,104.076538 
	C291.792358,106.291718 286.609375,103.537003 284.458344,97.375351 
	C283.646576,95.049973 283.264099,92.537605 282.964691,90.076569 
	C281.125092,74.955376 285.733978,61.692173 295.327637,50.210270 
	C303.011383,41.014233 311.305634,32.330914 319.164276,23.277113 
	C322.140503,19.848261 324.655518,16.019037 327.380737,12.372309 
	C327.098602,11.690376 326.816467,11.008444 326.534363,10.326511 
	C323.527435,10.326511 320.368561,9.733171 317.546753,10.455919 
	C312.425049,11.767747 306.991486,13.041280 302.594604,15.783978 
	C289.062622,24.224941 275.563232,32.821877 262.788452,42.346989 
	C246.497162,54.494102 230.792313,67.466034 218.011475,83.512970 
	C203.550949,101.668854 196.324677,122.304863 199.589249,145.415298 
	C202.258667,164.312546 206.749466,182.952515 210.309769,201.080246 
	C212.659225,195.813141 215.594818,189.688492 218.153259,183.410156 
	C225.593689,165.151627 236.184891,148.897797 249.511139,134.473068 
	C257.616882,125.699127 266.881104,118.276802 278.876587,115.498482 
	C288.666046,113.231094 298.130341,114.152672 304.808685,122.529091 
	C307.265320,125.610367 307.757538,130.324142 308.817810,134.379044 
	C308.972443,134.970444 307.292175,136.041595 306.460938,136.890747 
	C305.942780,135.977966 305.082733,135.108856 304.959656,134.145584 
	C303.781342,124.924080 298.182129,119.035225 289.007507,119.062164 
	C283.673462,119.077820 277.985107,120.041138 273.085083,122.085472 
	C261.238892,127.027771 252.767929,136.319077 244.895767,146.161636 
	C232.809784,161.272766 224.526672,178.451172 217.007462,196.133026 
	C210.514816,211.400864 202.317963,225.907303 199.115662,242.533463 
	C196.629364,255.442215 190.553177,266.517151 181.510269,276.606506 
	C163.326904,296.894073 160.313980,322.613464 172.044815,344.742218 
	C181.701477,362.958313 197.249893,374.468689 215.629883,382.765869 
	C221.531357,385.429932 227.235336,388.531555 233.645676,391.824860 
M252.530426,631.864685 
	C256.872925,640.446106 261.049072,649.118469 265.663361,657.551208 
	C266.977448,659.952698 270.262634,661.320068 271.435242,663.745972 
	C274.735809,670.574219 279.583466,675.659180 286.689026,677.993225 
	C295.520447,680.894165 304.541656,683.236938 313.531281,685.631775 
	C324.406067,688.528748 334.898041,691.941772 340.902039,703.099976 
	C342.792114,698.914612 344.187317,695.191406 346.083038,691.743347 
	C352.324707,680.390869 362.311951,676.826111 373.888611,682.452026 
	C379.503632,685.180847 384.371796,689.421143 389.699127,692.785400 
	C390.998566,693.606079 392.881104,694.250244 394.313019,693.986023 
	C400.803314,692.788696 407.166962,690.759216 413.690796,689.923035 
	C423.898834,688.614807 434.215790,688.579773 443.357239,682.483154 
	C445.837097,680.829224 449.832703,680.860474 452.645050,684.325806 
	C463.699554,697.947144 477.258209,708.668884 492.486725,717.223694 
	C536.766541,742.098206 585.633423,752.317261 634.874695,760.957947 
	C659.753540,765.323669 684.939026,767.927185 709.846741,772.148438 
	C724.095337,774.563171 738.246460,778.278320 750.637024,786.265808 
	C762.894348,794.167480 763.477905,804.009644 751.775696,812.560242 
	C736.853210,823.463745 719.661682,828.320679 701.264038,828.911377 
	C697.096802,829.045227 694.293884,827.545166 692.811646,822.961121 
	C689.861206,813.836548 686.160828,804.954529 682.592163,795.500610 
	C642.812439,818.606445 603.542175,841.416382 564.271973,864.226318 
	C564.429749,864.622864 564.587585,865.019409 564.745422,865.416016 
	C612.989014,864.166931 661.232666,862.917847 710.014526,861.654846 
	C709.168579,858.847534 708.629272,856.442993 707.721497,854.186646 
	C706.282715,850.610535 707.052917,849.371704 711.157043,848.823242 
	C723.646484,847.153931 736.271179,845.742493 748.444946,842.658569 
	C763.241516,838.910095 776.943970,832.162781 787.962830,821.201477 
	C801.536194,807.698853 801.337952,792.656006 786.343811,780.894287 
	C777.295715,773.796753 766.990540,767.848389 756.450928,763.193481 
	C728.426575,750.816772 698.302246,745.484558 668.567993,739.074585 
	C639.140503,732.730835 609.583252,727.037781 581.371704,716.059937 
	C522.369385,693.100525 484.409912,652.028076 471.585541,589.163879 
	C470.882721,585.718689 470.202209,582.268921 469.627350,579.400452 
	C461.461090,584.488953 454.060944,589.978210 445.915161,593.930908 
	C437.619446,597.956421 428.589935,600.469727 419.650299,603.729492 
	C432.937134,613.566772 446.201447,623.601929 459.720978,633.280579 
	C464.451782,636.667358 465.761719,640.792236 463.817810,645.786499 
	C462.458832,649.278076 460.530670,652.769287 458.068146,655.566528 
	C452.027557,662.428284 447.147247,662.692383 439.917969,657.270935 
	C424.060150,645.378784 407.490173,634.301025 392.600830,621.299133 
	C382.296112,612.300720 373.036530,611.167908 360.852020,616.126587 
	C352.051575,619.708069 342.331604,621.871826 332.845367,622.738953 
	C316.635345,624.220764 303.436737,615.856689 290.682587,607.073242 
	C289.055023,605.952393 287.279694,605.048157 285.594116,604.008972 
	C279.262909,600.105774 272.649597,596.577698 266.714081,592.143250 
	C262.550842,589.032837 259.316467,584.679199 255.112778,580.303589 
	C248.885696,597.651428 247.469513,614.197144 252.530426,631.864685 
M217.165680,824.173157 
	C232.283905,826.414246 247.332520,829.611816 262.533325,830.718262 
	C309.178345,834.113403 355.305054,829.831665 400.763031,818.891907 
	C427.504852,812.456299 453.348694,803.540222 477.031189,789.183044 
	C478.381927,788.364197 480.489807,787.156433 480.527679,786.069824 
	C480.820129,777.678833 480.688782,769.273071 480.688782,761.499268 
	C474.336884,765.896118 468.058533,771.085571 461.041901,774.926270 
	C445.640442,783.356567 428.831360,788.163696 411.795868,792.024292 
	C359.516296,803.872009 306.565582,808.416565 253.102615,804.710388 
	C228.000809,802.970154 202.595322,800.901306 180.342865,783.955811 
	C179.865921,791.173218 179.601227,797.613220 178.951187,804.014099 
	C178.613281,807.341248 179.757111,809.599915 182.661896,810.767273 
	C193.859131,815.266724 205.112747,819.625977 217.165680,824.173157 
M274.561096,801.683960 
	C291.334656,801.421875 308.108215,801.159729 325.442169,800.888855 
	C325.055969,797.757019 324.930725,795.626709 324.515930,793.554321 
	C321.229919,777.136230 311.665863,765.468689 296.528015,758.897949 
	C266.786804,745.988403 237.406906,749.223633 208.652344,762.425354 
	C199.268784,766.733582 191.127930,772.860718 185.138611,781.687683 
	C192.265594,788.594604 200.958939,791.480957 209.778580,793.894104 
	C230.650024,799.604797 252.097916,800.846863 274.561096,801.683960 
M178.100525,771.630066 
	C184.799988,768.926025 191.775513,766.742432 198.123474,763.375671 
	C204.846344,759.810059 205.229187,757.003113 200.526169,750.839905 
	C198.384079,748.032715 195.442947,745.246094 192.254868,743.956299 
	C186.637589,741.683716 180.636185,739.684509 174.649353,739.118958 
	C149.156876,736.710510 124.752335,742.273315 100.876587,750.582886 
	C95.087692,752.597656 89.579582,755.419189 83.942375,757.869751 
	C83.895424,758.600220 83.848480,759.330627 83.801529,760.061035 
	C89.756783,762.736023 95.500984,766.123718 101.704376,767.960693 
	C126.529030,775.312134 151.805771,775.920654 178.100525,771.630066 
M225.181046,530.889282 
	C227.083145,530.287354 229.039246,529.817139 230.878922,529.062988 
	C248.332062,521.908264 261.674316,510.503693 267.337189,491.950928 
	C271.578583,478.055237 263.002045,464.924530 248.977600,463.299835 
	C242.379318,462.535400 235.697815,462.452820 229.048965,462.188354 
	C227.495972,462.126587 225.922455,462.581055 224.265671,462.810852 
	C225.545135,466.867889 226.843582,470.300781 227.707504,473.839752 
	C232.064270,491.686859 226.280548,503.113617 209.401886,510.181335 
	C207.569580,510.948547 205.678436,511.820068 203.743408,512.053772 
	C196.287292,512.954285 188.802261,513.615295 181.544006,514.343872 
	C186.728104,527.309082 205.544769,534.929321 225.181046,530.889282 
M157.797272,478.329681 
	C155.886627,489.971466 165.178375,503.636932 178.390320,507.826263 
	C192.188400,512.201477 205.060699,509.725708 216.650467,501.124847 
	C223.185989,496.274841 226.254288,489.702820 224.890823,481.503235 
	C224.238419,477.579651 223.077637,473.743103 222.237823,469.847595 
	C221.252197,465.275818 219.035858,463.551941 213.909424,464.055695 
	C202.481995,465.178589 191.586182,463.669403 183.304306,454.246490 
	C182.553558,453.392242 180.125778,453.005981 179.097031,453.558075 
	C169.117462,458.914062 161.119324,466.136169 157.797272,478.329681 
M121.644264,801.759766 
	C139.354172,801.119812 157.064072,800.479858 174.770508,799.840027 
	C175.441833,789.564453 175.187119,780.289490 184.776245,774.896057 
	C161.967819,779.570435 139.617630,779.594910 117.255630,775.907837 
	C105.268250,773.931396 93.403893,771.283569 83.154274,764.173889 
	C78.734398,761.107971 75.631355,762.352783 74.924553,767.932800 
	C74.424294,771.882080 74.629654,775.917419 74.203239,779.880249 
	C73.611473,785.379761 76.000946,789.310242 80.466423,791.947327 
	C83.867149,793.955566 87.446304,796.167297 91.221611,796.937012 
	C100.961868,798.922791 110.854866,800.159363 121.644264,801.759766 
M197.973953,458.831879 
	C209.737762,461.586243 221.154175,460.688324 231.868561,454.941071 
	C246.066742,447.325073 247.414246,432.883331 235.109009,422.326447 
	C222.484390,411.495605 197.172150,411.223572 184.320267,421.871826 
	C178.973236,426.302063 176.588913,431.963013 179.026291,438.739655 
	C182.288696,447.810150 187.550949,455.258087 197.973953,458.831879 
M412.793579,631.681946 
	C422.636780,639.067505 432.479645,646.453552 442.323364,653.838440 
	C447.976807,658.079834 450.774170,657.950928 455.334839,652.484558 
	C457.304352,650.123962 458.772156,647.209473 459.908356,644.326050 
	C461.102081,641.296570 460.261017,638.820435 457.256104,636.671082 
	C445.761505,628.449463 434.095978,620.389954 423.260620,611.351135 
	C416.308411,605.551636 409.533661,603.805359 401.008820,606.336060 
	C395.747620,607.897827 390.202972,608.505066 383.596527,609.768127 
	C393.913025,617.499390 403.074646,624.365234 412.793579,631.681946 
M251.986801,521.532715 
	C243.324249,526.552490 234.661697,531.572205 226.050766,536.562073 
	C226.791656,537.015381 228.377625,538.176941 230.118576,539.017456 
	C237.098267,542.387085 244.361221,542.384827 251.501465,539.902893 
	C264.051117,535.540588 273.997040,528.192627 277.360107,514.513916 
	C279.149414,507.236115 275.634033,502.405365 269.715912,501.608063 
	C263.690979,508.418640 258.103027,514.735229 251.986801,521.532715 
z"/>
<path fill="#D00000" opacity="1.000000" stroke="none" 
	d="
M233.337677,391.628906 
	C227.235336,388.531555 221.531357,385.429932 215.629883,382.765869 
	C197.249893,374.468689 181.701477,362.958313 172.044815,344.742218 
	C160.313980,322.613464 163.326904,296.894073 181.510269,276.606506 
	C190.553177,266.517151 196.629364,255.442215 199.115662,242.533463 
	C202.317963,225.907303 210.514816,211.400864 217.007462,196.133026 
	C224.526672,178.451172 232.809784,161.272766 244.895767,146.161636 
	C252.767929,136.319077 261.238892,127.027771 273.085083,122.085472 
	C277.985107,120.041138 283.673462,119.077820 289.007507,119.062164 
	C298.182129,119.035225 303.781342,124.924080 304.959656,134.145584 
	C305.082733,135.108856 305.942780,135.977966 306.460938,136.890747 
	C307.292175,136.041595 308.972443,134.970444 308.817810,134.379044 
	C307.757538,130.324142 307.265320,125.610367 304.808685,122.529091 
	C298.130341,114.152672 288.666046,113.231094 278.876587,115.498482 
	C266.881104,118.276802 257.616882,125.699127 249.511139,134.473068 
	C236.184891,148.897797 225.593689,165.151627 218.153259,183.410156 
	C215.594818,189.688492 212.659225,195.813141 210.309769,201.080246 
	C206.749466,182.952515 202.258667,164.312546 199.589249,145.415298 
	C196.324677,122.304863 203.550949,101.668854 218.011475,83.512970 
	C230.792313,67.466034 246.497162,54.494102 262.788452,42.346989 
	C275.563232,32.821877 289.062622,24.224941 302.594604,15.783978 
	C306.991486,13.041280 312.425049,11.767747 317.546753,10.455919 
	C320.368561,9.733171 323.527435,10.326511 326.534363,10.326511 
	C326.816467,11.008444 327.098602,11.690376 327.380737,12.372309 
	C324.655518,16.019037 322.140503,19.848261 319.164276,23.277113 
	C311.305634,32.330914 303.011383,41.014233 295.327637,50.210270 
	C285.733978,61.692173 281.125092,74.955376 282.964691,90.076569 
	C283.264099,92.537605 283.646576,95.049973 284.458344,97.375351 
	C286.609375,103.537003 291.792358,106.291718 297.912262,104.076538 
	C302.247498,102.507355 306.200958,99.909424 310.392273,97.912331 
	C338.459686,84.538719 367.736206,80.773445 398.447662,85.886818 
	C427.783539,90.771164 455.228027,100.305435 479.631866,117.423637 
	C488.162628,123.407555 495.787323,130.746841 503.448730,137.872635 
	C506.224091,140.453995 508.552063,141.666412 512.209534,140.396561 
	C521.138245,137.296570 530.562561,135.271896 539.004578,131.193863 
	C557.993530,122.021034 564.933838,106.879074 559.235168,86.649445 
	C556.006348,75.187164 550.837341,64.268082 546.480408,53.128517 
	C544.602173,48.326336 542.631287,43.557728 540.582214,38.825954 
	C539.119934,35.449181 540.720093,33.529800 543.734192,34.146877 
	C549.821777,35.393166 556.416992,36.311260 561.617065,39.376381 
	C586.867126,54.259647 603.623901,76.609192 613.927429,103.596085 
	C630.442627,146.852585 620.998047,185.287735 590.429749,219.131897 
	C574.729797,236.514420 555.802490,249.778397 535.373352,260.958435 
	C532.005432,262.801575 530.835083,264.877258 530.780090,268.735992 
	C530.420166,293.978821 528.033875,318.894043 518.256836,342.590576 
	C509.667206,363.409363 495.730408,380.050629 479.234467,395.027344 
	C472.276062,401.344879 465.826965,408.498840 460.406677,416.163849 
	C453.930725,425.321716 453.688599,435.809967 458.151031,446.169617 
	C459.794220,449.984253 461.637787,453.743652 463.734436,457.326691 
	C476.275238,478.757874 480.807739,502.443420 481.717987,526.681335 
	C483.019714,561.342834 468.067505,582.789490 435.123535,593.865112 
	C421.973053,598.286194 407.918854,599.950012 394.402924,603.370483 
	C377.001678,607.774231 359.740387,612.728455 342.395691,617.359192 
	C325.712219,621.813232 311.524811,615.934082 296.875214,606.066345 
	C303.002350,606.066345 307.772461,606.222717 312.521545,605.974915 
	C314.025818,605.896423 315.473816,604.739319 316.947571,604.075806 
	C315.522705,603.375366 314.128662,602.150452 312.667633,602.064453 
	C306.030304,601.673828 299.321808,602.064514 292.736084,601.317566 
	C281.146118,600.003235 272.782104,592.700500 264.873383,584.911743 
	C262.163361,582.242859 259.722321,579.300842 256.755432,576.040771 
	C263.001038,577.594482 268.584381,579.500183 274.320068,580.268799 
	C280.385742,581.081726 286.596832,580.925049 292.743622,580.908325 
	C293.818604,580.905396 294.889709,579.502441 295.962585,578.746094 
	C294.803162,578.144409 293.631195,576.999512 292.486328,577.026123 
	C282.446808,577.258667 272.511902,577.049500 262.991760,573.205811 
	C251.100372,568.404724 244.719711,559.047607 244.756027,545.853577 
	C247.206833,545.266846 249.815292,544.862671 252.272156,544.017761 
	C266.183014,539.233704 277.203339,531.254822 281.167938,516.234741 
	C283.425629,507.681366 280.559631,501.907959 272.241699,497.354828 
	C281.459900,490.383423 291.478119,486.141052 302.735077,484.981415 
	C320.641174,483.136871 336.140717,489.120972 350.123932,499.857971 
	C358.675415,506.424225 367.862427,511.622589 378.703552,513.377502 
	C389.666199,515.152100 400.268250,513.527893 410.630463,509.969208 
	C411.655945,509.617004 412.246735,507.999176 413.039307,506.968750 
	C411.872162,506.673889 410.626526,505.955261 409.550781,506.154388 
	C403.512421,507.271912 397.569336,509.183289 391.492798,509.759399 
	C377.135529,511.120605 364.757935,505.837799 353.556427,497.218872 
	C342.291901,488.551422 329.986572,482.358795 315.571655,480.796021 
	C301.434662,479.263397 288.511780,482.620361 276.306915,489.504883 
	C275.029327,490.225525 273.745728,490.935577 271.800110,492.021698 
	C273.694397,482.620728 272.130463,474.564728 265.181488,466.647705 
	C268.324677,467.162811 270.152100,467.425842 271.965210,467.765167 
	C288.216095,470.806213 303.649475,456.080109 300.758514,439.752411 
	C300.163025,436.389038 297.659210,432.398041 294.825897,430.551208 
	C274.608246,417.372803 254.077118,404.675293 233.337677,391.628906 
M373.695038,212.223160 
	C373.435120,204.412445 373.628143,196.553680 372.805847,188.802628 
	C371.661652,178.016907 369.387299,167.412827 363.020874,158.245209 
	C357.297363,150.003418 349.877960,147.543091 340.454254,150.758698 
	C337.638306,151.719559 334.828400,152.859024 332.249207,154.326904 
	C315.623810,163.788834 304.309845,178.303436 295.114258,194.553894 
	C282.139709,217.482513 273.568512,241.743240 275.048889,268.624969 
	C276.428467,293.675812 294.266724,308.027039 318.949188,304.184296 
	C336.863068,301.395264 348.211487,289.957825 356.759338,275.180939 
	C367.827545,256.047089 372.036713,234.928497 373.695038,212.223160 
M235.786697,282.993774 
	C241.776993,283.562500 246.786484,281.195374 250.331619,276.736359 
	C254.026962,272.088409 257.557343,267.070740 259.953674,261.678680 
	C264.811584,250.747726 269.200104,239.575912 273.161072,228.285492 
	C280.808563,206.487091 288.519653,184.687805 295.234650,162.594162 
	C299.245789,149.396698 290.250183,141.302628 276.710785,144.662033 
	C268.328827,146.741745 261.686829,151.676849 255.719986,157.605820 
	C239.091125,174.129166 228.429779,194.418854 219.683670,215.799683 
	C214.351395,228.835083 210.963516,242.299393 212.950165,256.657257 
	C214.738464,269.581726 222.949173,279.601227 235.786697,282.993774 
M234.620331,367.858032 
	C229.002350,361.167847 222.164459,356.275879 213.517670,354.531097 
	C211.701355,354.164642 209.543747,355.489655 207.543396,356.035248 
	C208.886292,357.527161 209.993958,359.938751 211.612564,360.352783 
	C218.862793,362.207184 224.523941,366.210388 229.484787,371.617676 
	C235.896774,378.606750 242.196243,385.739014 249.064240,392.262054 
	C267.848175,410.102600 290.244415,416.565186 315.714386,412.152313 
	C338.373749,408.226471 358.272095,398.201599 375.847626,383.635620 
	C381.063995,379.312439 385.821381,376.806030 392.463409,380.120117 
	C393.695435,380.734863 395.837128,379.526520 397.558960,379.159607 
	C396.705536,377.620850 396.241150,375.415588 394.934692,374.653015 
	C387.252380,370.168793 380.898987,371.108734 373.127594,377.788330 
	C359.281128,389.689514 343.517975,398.060608 326.092163,403.234497 
	C299.450348,411.144623 274.982391,407.576263 254.060013,388.234467 
	C247.353790,382.034912 241.391846,375.030304 234.620331,367.858032 
M283.896759,345.864899 
	C294.993896,349.487366 303.045380,343.524689 300.876709,333.147736 
	C299.784515,327.921661 296.270599,324.374969 291.623230,322.017700 
	C290.812836,321.606628 289.550323,322.086823 288.496643,322.155365 
	C288.794464,323.280365 288.772186,324.674408 289.449646,325.480225 
	C291.543335,327.970612 294.741364,329.892273 295.895508,332.698914 
	C296.818695,334.943909 296.265472,338.912720 294.726562,340.716217 
	C293.386475,342.286713 289.663177,342.544281 287.154541,342.201050 
	C284.468292,341.833435 282.061432,339.457214 279.372406,339.069824 
	C273.753113,338.260284 266.925690,336.031189 262.580597,338.258972 
	C253.990143,342.663330 246.407974,342.435547 238.146332,338.974609 
	C237.235199,338.592896 236.237350,338.305420 235.257812,338.217041 
	C224.492538,337.245178 219.392319,330.264191 216.651474,320.763092 
	C211.129211,301.620209 223.597397,287.766571 243.013977,291.954926 
	C249.098145,293.267365 254.832138,296.216736 260.709839,298.460327 
	C261.788513,298.872070 262.755707,299.814819 263.832397,299.920441 
	C264.764496,300.011902 265.779053,299.263153 266.757141,298.885773 
	C266.382599,298.042145 266.245117,296.794800 265.598236,296.414917 
	C254.360977,289.815735 242.595398,284.549957 229.201996,287.635315 
	C214.816666,290.949097 207.630371,306.377991 212.606339,322.403320 
	C215.865494,332.899536 221.643127,340.759338 233.644333,342.387451 
	C238.194931,343.004791 242.505173,345.274658 247.050735,346.090820 
	C249.956543,346.612579 253.814789,346.933960 256.000214,345.476746 
	C265.273926,339.293335 274.129608,340.209564 283.896759,345.864899 
M372.073822,119.227364 
	C358.148895,114.563675 345.498199,117.290771 334.121033,126.163704 
	C332.393524,127.510963 331.681671,130.160553 330.500031,132.207764 
	C332.558563,131.308563 334.907684,130.784531 336.629608,129.450790 
	C350.365845,118.811470 368.033447,118.552261 380.240906,129.131531 
	C386.488373,134.545731 389.797821,141.707367 392.059570,149.535629 
	C393.152771,153.319443 394.864441,156.953796 396.623047,160.493378 
	C397.010223,161.272644 398.783600,161.363220 399.918640,161.770935 
	C400.086273,160.766800 400.654388,159.620453 400.356537,158.781601 
	C398.421173,153.330948 396.280029,147.953751 394.239227,142.540070 
	C390.239136,131.928925 383.426666,123.957260 372.073822,119.227364 
z"/>
<path fill="#D00000" opacity="1.000000" stroke="none" 
	d="
M252.385391,631.485840 
	C247.469513,614.197144 248.885696,597.651428 255.112778,580.303589 
	C259.316467,584.679199 262.550842,589.032837 266.714081,592.143250 
	C272.649597,596.577698 279.262909,600.105774 285.594116,604.008972 
	C287.279694,605.048157 289.055023,605.952393 290.682587,607.073242 
	C303.436737,615.856689 316.635345,624.220764 332.845367,622.738953 
	C342.331604,621.871826 352.051575,619.708069 360.852020,616.126587 
	C373.036530,611.167908 382.296112,612.300720 392.600830,621.299133 
	C407.490173,634.301025 424.060150,645.378784 439.917969,657.270935 
	C447.147247,662.692383 452.027557,662.428284 458.068146,655.566528 
	C460.530670,652.769287 462.458832,649.278076 463.817810,645.786499 
	C465.761719,640.792236 464.451782,636.667358 459.720978,633.280579 
	C446.201447,623.601929 432.937134,613.566772 419.650299,603.729492 
	C428.589935,600.469727 437.619446,597.956421 445.915161,593.930908 
	C454.060944,589.978210 461.461090,584.488953 469.627350,579.400452 
	C470.202209,582.268921 470.882721,585.718689 471.585541,589.163879 
	C484.409912,652.028076 522.369385,693.100525 581.371704,716.059937 
	C609.583252,727.037781 639.140503,732.730835 668.567993,739.074585 
	C698.302246,745.484558 728.426575,750.816772 756.450928,763.193481 
	C766.990540,767.848389 777.295715,773.796753 786.343811,780.894287 
	C801.337952,792.656006 801.536194,807.698853 787.962830,821.201477 
	C776.943970,832.162781 763.241516,838.910095 748.444946,842.658569 
	C736.271179,845.742493 723.646484,847.153931 711.157043,848.823242 
	C707.052917,849.371704 706.282715,850.610535 707.721497,854.186646 
	C708.629272,856.442993 709.168579,858.847534 710.014526,861.654846 
	C661.232666,862.917847 612.989014,864.166931 564.745422,865.416016 
	C564.587585,865.019409 564.429749,864.622864 564.271973,864.226318 
	C603.542175,841.416382 642.812439,818.606445 682.592163,795.500610 
	C686.160828,804.954529 689.861206,813.836548 692.811646,822.961121 
	C694.293884,827.545166 697.096802,829.045227 701.264038,828.911377 
	C719.661682,828.320679 736.853210,823.463745 751.775696,812.560242 
	C763.477905,804.009644 762.894348,794.167480 750.637024,786.265808 
	C738.246460,778.278320 724.095337,774.563171 709.846741,772.148438 
	C684.939026,767.927185 659.753540,765.323669 634.874695,760.957947 
	C585.633423,752.317261 536.766541,742.098206 492.486725,717.223694 
	C477.258209,708.668884 463.699554,697.947144 452.645050,684.325806 
	C449.832703,680.860474 445.837097,680.829224 443.357239,682.483154 
	C434.215790,688.579773 423.898834,688.614807 413.690796,689.923035 
	C407.166962,690.759216 400.803314,692.788696 394.313019,693.986023 
	C392.881104,694.250244 390.998566,693.606079 389.699127,692.785400 
	C384.371796,689.421143 379.503632,685.180847 373.888611,682.452026 
	C362.311951,676.826111 352.324707,680.390869 346.083038,691.743347 
	C344.187317,695.191406 342.792114,698.914612 340.902039,703.099976 
	C334.898041,691.941772 324.406067,688.528748 313.531281,685.631775 
	C304.541656,683.236938 295.520447,680.894165 286.689026,677.993225 
	C279.583466,675.659180 274.735809,670.574219 271.435242,663.745972 
	C270.262634,661.320068 266.977448,659.952698 265.663361,657.551208 
	C261.049072,649.118469 256.872925,640.446106 252.385391,631.485840 
z"/>
<path fill="#00AE00" opacity="1.000000" stroke="none" 
	d="
M396.997559,716.436707 
	C396.997559,710.313416 396.997559,704.190125 396.997559,696.998962 
	C400.927521,696.135132 405.519165,694.628479 410.210144,694.193970 
	C421.445801,693.153381 432.845245,693.381653 443.179352,687.570740 
	C444.101044,687.052368 446.989563,688.761108 448.143066,690.128540 
	C456.605438,700.160522 462.828705,711.543762 466.977814,723.953308 
	C470.401123,734.192017 473.345001,744.596436 476.238892,755.000427 
	C476.618134,756.363892 475.947632,758.793152 474.889832,759.648132 
	C470.405640,763.272644 465.954285,767.228760 460.840057,769.736084 
	C425.704193,786.961365 388.015503,794.424805 349.396027,798.127686 
	C343.605743,798.682800 337.824982,799.337158 332.036591,799.912598 
	C331.392334,799.976685 330.726593,799.823914 329.562622,799.731201 
	C328.629730,787.108276 324.027954,775.945862 314.617950,766.066101 
	C320.145233,763.988770 325.075134,761.779175 330.210846,760.269653 
	C348.848450,754.791748 367.515930,749.404114 386.266846,744.332642 
	C390.258575,743.253052 393.296814,741.476196 394.123962,737.670715 
	C395.486816,731.400635 396.120697,724.972168 396.941895,717.933472 
	C396.752441,716.955933 396.811005,716.682617 396.997559,716.436707 
M455.098297,722.485352 
	C452.814514,713.237671 445.706848,708.709473 436.512329,710.644531 
	C424.389923,713.195740 418.289124,723.603760 421.400177,736.425781 
	C423.180115,743.761475 429.335144,749.050171 436.950592,749.787354 
	C443.203918,750.392700 450.203278,746.521118 452.536072,739.714539 
	C454.308380,734.543091 454.358398,728.781433 455.098297,722.485352 
z"/>
<path fill="#FCFCFC" opacity="1.000000" stroke="none" 
	d="
M216.755524,824.105347 
	C205.112747,819.625977 193.859131,815.266724 182.661896,810.767273 
	C179.757111,809.599915 178.613281,807.341248 178.951187,804.014099 
	C179.601227,797.613220 179.865921,791.173218 180.342865,783.955811 
	C202.595322,800.901306 228.000809,802.970154 253.102615,804.710388 
	C306.565582,808.416565 359.516296,803.872009 411.795868,792.024292 
	C428.831360,788.163696 445.640442,783.356567 461.041901,774.926270 
	C468.058533,771.085571 474.336884,765.896118 480.688782,761.499268 
	C480.688782,769.273071 480.820129,777.678833 480.527679,786.069824 
	C480.489807,787.156433 478.381927,788.364197 477.031189,789.183044 
	C453.348694,803.540222 427.504852,812.456299 400.763031,818.891907 
	C355.305054,829.831665 309.178345,834.113403 262.533325,830.718262 
	C247.332520,829.611816 232.283905,826.414246 216.755524,824.105347 
z"/>
<path fill="#FBD400" opacity="1.000000" stroke="none" 
	d="
M10.520943,379.433929 
	C17.952126,383.516083 25.160240,388.096283 32.872677,391.550415 
	C41.896591,395.591919 51.359978,398.652130 61.162334,402.337158 
	C60.181599,404.046753 58.701614,406.371979 57.478809,408.825348 
	C56.080994,411.629913 54.577400,414.461609 53.799397,417.457977 
	C53.463356,418.752167 54.407425,421.364685 55.491684,421.890686 
	C67.708809,427.817596 80.201988,432.752319 94.276138,430.224976 
	C104.929184,428.311920 112.670479,422.041107 118.932884,413.684448 
	C119.685860,412.679626 119.882446,410.347656 119.233635,409.343994 
	C113.004929,399.708923 105.398430,391.496338 94.871910,386.306671 
	C90.754311,384.276672 87.184036,383.894867 83.588966,387.236633 
	C82.181267,388.545135 80.348091,389.395905 78.291283,390.724792 
	C75.808640,372.707916 63.685997,359.453644 57.535213,342.426147 
	C67.361641,344.847748 74.126595,351.180847 82.204002,354.595612 
	C90.131844,357.947174 98.760605,359.640747 107.640495,362.224548 
	C106.616158,364.678223 105.657318,367.072754 104.621040,369.433289 
	C103.242004,372.574646 103.572281,374.915771 106.732300,377.068207 
	C115.123978,382.784180 123.362144,388.733032 131.521820,394.777649 
	C134.055801,396.654846 136.034241,396.652161 138.668854,395.002380 
	C147.991333,389.164551 152.196747,379.523071 148.328812,368.707581 
	C145.797104,361.628418 141.445511,355.164368 137.529343,348.653198 
	C136.916428,347.634155 133.984100,347.079041 132.631927,347.607727 
	C128.330429,349.289612 124.268723,351.584778 120.083984,353.658020 
	C116.953766,346.279877 114.321609,338.960938 110.802429,332.096771 
	C107.338501,325.340363 102.975197,319.045044 98.274834,311.349487 
	C114.359268,318.772247 129.310562,325.672089 145.007401,332.915985 
	C138.286606,339.979156 144.066849,343.185547 148.352325,347.453552 
	C152.555191,351.639252 156.391907,356.396118 159.475388,361.458954 
	C165.466370,371.295654 164.907501,381.770630 160.801666,392.205109 
	C158.855972,397.149902 156.774933,402.041443 154.751892,406.955750 
	C153.377228,410.295074 153.840240,412.785339 157.188324,414.974640 
	C162.336578,418.341125 167.187195,422.172485 172.065628,425.934296 
	C173.130264,426.755280 174.684265,428.331055 174.478210,429.191772 
	C172.751297,436.404907 175.588501,442.510284 178.912933,448.674622 
	C177.014877,449.757172 175.292313,450.739624 173.157516,451.957184 
	C164.666626,445.614929 155.942444,439.270386 147.435974,432.646271 
	C144.657150,430.482391 141.962662,429.554047 138.701553,430.788940 
	C133.284302,432.840302 127.722702,434.626038 122.552864,437.190796 
	C112.233665,442.310181 102.021355,447.768921 90.168846,447.889160 
	C73.377464,448.059540 58.397720,442.476379 45.563007,431.806396 
	C29.087227,418.109497 17.480947,400.835968 10.065395,380.299683 
	C10.232410,379.768219 10.520945,379.433929 10.520943,379.433929 
z"/>
<path fill="#FDFDFD" opacity="1.000000" stroke="none" 
	d="
M274.071899,801.675354 
	C252.097916,800.846863 230.650024,799.604797 209.778580,793.894104 
	C200.958939,791.480957 192.265594,788.594604 185.138611,781.687683 
	C191.127930,772.860718 199.268784,766.733582 208.652344,762.425354 
	C237.406906,749.223633 266.786804,745.988403 296.528015,758.897949 
	C311.665863,765.468689 321.229919,777.136230 324.515930,793.554321 
	C324.930725,795.626709 325.055969,797.757019 325.442169,800.888855 
	C308.108215,801.159729 291.334656,801.421875 274.071899,801.675354 
z"/>
<path fill="#00AF03" opacity="1.000000" stroke="none" 
	d="
M256.349030,746.713989 
	C239.828796,747.395874 223.859787,750.636780 208.183044,757.804077 
	C205.614395,748.198364 199.814316,741.977356 190.968506,738.520813 
	C210.675201,735.558777 229.882309,732.671814 249.708786,730.050537 
	C251.296036,730.889465 252.196747,731.717224 253.243057,731.993530 
	C258.865540,733.478027 264.528748,734.807312 270.168945,736.225769 
	C274.842102,737.401001 279.474396,738.766602 284.191040,739.720154 
	C285.249512,739.934143 286.583893,738.783142 287.791321,738.260498 
	C286.942810,737.413086 286.199860,736.400208 285.212555,735.770081 
	C284.412750,735.259583 283.319092,735.209290 282.355621,734.955444 
	C273.533844,732.631470 264.712036,730.307617 255.890228,727.983765 
	C260.675598,725.619385 265.460968,723.255066 270.683777,721.162720 
	C272.465302,722.246826 273.717834,723.501465 275.167908,723.801575 
	C287.500183,726.354248 299.857056,728.794800 312.240967,731.082581 
	C313.714294,731.354675 315.394165,730.508972 316.978271,730.181396 
	C315.621918,729.120056 314.402344,727.422607 312.887756,727.096802 
	C299.603821,724.239258 286.267303,721.626465 272.946350,718.941162 
	C274.945374,715.740234 276.944366,712.539307 279.332764,709.303589 
	C280.999359,709.853394 282.234619,710.816467 283.560333,710.963501 
	C295.804260,712.320862 308.056854,713.615845 320.327026,714.701660 
	C321.973633,714.847351 323.731903,713.731140 325.438446,713.199280 
	C323.947296,712.277771 322.528107,710.712952 320.953583,710.536804 
	C308.712372,709.167175 296.447144,707.995117 284.172180,706.966675 
	C282.595001,706.834473 280.919312,707.877869 279.289276,708.376709 
	C279.987366,701.252014 277.690918,694.963806 273.967957,689.044800 
	C270.690979,683.834900 269.476929,678.178711 270.372803,671.200012 
	C280.948517,683.739502 295.839874,684.953735 309.549103,688.994080 
	C315.733459,690.816772 321.971802,692.740356 327.779602,695.479187 
	C333.983734,698.404846 337.719055,703.656372 338.092072,710.841309 
	C338.466400,718.051147 330.518799,729.590942 323.377441,732.005127 
	C309.711731,736.624878 296.050079,741.260437 282.322479,745.690308 
	C278.968994,746.772400 275.366791,747.083862 271.436218,747.322021 
	C269.924744,745.927490 268.972534,744.307373 267.769623,744.092834 
	C252.272293,741.329041 236.746948,738.717102 221.201218,736.239075 
	C219.886505,736.029480 218.374741,737.056030 216.954498,737.508423 
	C218.189270,738.502380 219.338104,739.643188 220.691193,740.434875 
	C221.494125,740.904602 222.619675,740.820251 223.599045,740.991333 
	C234.515823,742.898193 245.432404,744.806213 256.349030,746.713989 
z"/>
<path fill="#FCFCFC" opacity="1.000000" stroke="none" 
	d="
M177.685852,771.726501 
	C151.805771,775.920654 126.529030,775.312134 101.704376,767.960693 
	C95.500984,766.123718 89.756783,762.736023 83.801529,760.061035 
	C83.848480,759.330627 83.895424,758.600220 83.942375,757.869751 
	C89.579582,755.419189 95.087692,752.597656 100.876587,750.582886 
	C124.752335,742.273315 149.156876,736.710510 174.649353,739.118958 
	C180.636185,739.684509 186.637589,741.683716 192.254868,743.956299 
	C195.442947,745.246094 198.384079,748.032715 200.526169,750.839905 
	C205.229187,757.003113 204.846344,759.810059 198.123474,763.375671 
	C191.775513,766.742432 184.799988,768.926025 177.685852,771.726501 
z"/>
<path fill="#CF0000" opacity="1.000000" stroke="none" 
	d="
M224.761597,530.954224 
	C205.544769,534.929321 186.728104,527.309082 181.544006,514.343872 
	C188.802261,513.615295 196.287292,512.954285 203.743408,512.053772 
	C205.678436,511.820068 207.569580,510.948547 209.401886,510.181335 
	C226.280548,503.113617 232.064270,491.686859 227.707504,473.839752 
	C226.843582,470.300781 225.545135,466.867889 224.265671,462.810852 
	C225.922455,462.581055 227.495972,462.126587 229.048965,462.188354 
	C235.697815,462.452820 242.379318,462.535400 248.977600,463.299835 
	C263.002045,464.924530 271.578583,478.055237 267.337189,491.950928 
	C261.674316,510.503693 248.332062,521.908264 230.878922,529.062988 
	C229.039246,529.817139 227.083145,530.287354 224.761597,530.954224 
z"/>
<path fill="#CF0000" opacity="1.000000" stroke="none" 
	d="
M157.869797,477.936371 
	C161.119324,466.136169 169.117462,458.914062 179.097031,453.558075 
	C180.125778,453.005981 182.553558,453.392242 183.304306,454.246490 
	C191.586182,463.669403 202.481995,465.178589 213.909424,464.055695 
	C219.035858,463.551941 221.252197,465.275818 222.237823,469.847595 
	C223.077637,473.743103 224.238419,477.579651 224.890823,481.503235 
	C226.254288,489.702820 223.185989,496.274841 216.650467,501.124847 
	C205.060699,509.725708 192.188400,512.201477 178.390320,507.826263 
	C165.178375,503.636932 155.886627,489.971466 157.869797,477.936371 
z"/>
<path fill="#FBFBFB" opacity="1.000000" stroke="none" 
	d="
M121.165558,801.727478 
	C110.854866,800.159363 100.961868,798.922791 91.221611,796.937012 
	C87.446304,796.167297 83.867149,793.955566 80.466423,791.947327 
	C76.000946,789.310242 73.611473,785.379761 74.203239,779.880249 
	C74.629654,775.917419 74.424294,771.882080 74.924553,767.932800 
	C75.631355,762.352783 78.734398,761.107971 83.154274,764.173889 
	C93.403893,771.283569 105.268250,773.931396 117.255630,775.907837 
	C139.617630,779.594910 161.967819,779.570435 184.776245,774.896057 
	C175.187119,780.289490 175.441833,789.564453 174.770508,799.840027 
	C157.064072,800.479858 139.354172,801.119812 121.165558,801.727478 
z"/>
<path fill="#CF0000" opacity="1.000000" stroke="none" 
	d="
M197.591324,458.698120 
	C187.550949,455.258087 182.288696,447.810150 179.026291,438.739655 
	C176.588913,431.963013 178.973236,426.302063 184.320267,421.871826 
	C197.172150,411.223572 222.484390,411.495605 235.109009,422.326447 
	C247.414246,432.883331 246.066742,447.325073 231.868561,454.941071 
	C221.154175,460.688324 209.737762,461.586243 197.591324,458.698120 
z"/>
<path fill="#FCD500" opacity="1.000000" stroke="none" 
	d="
M412.514923,631.456543 
	C403.074646,624.365234 393.913025,617.499390 383.596527,609.768127 
	C390.202972,608.505066 395.747620,607.897827 401.008820,606.336060 
	C409.533661,603.805359 416.308411,605.551636 423.260620,611.351135 
	C434.095978,620.389954 445.761505,628.449463 457.256104,636.671082 
	C460.261017,638.820435 461.102081,641.296570 459.908356,644.326050 
	C458.772156,647.209473 457.304352,650.123962 455.334839,652.484558 
	C450.774170,657.950928 447.976807,658.079834 442.323364,653.838440 
	C432.479645,646.453552 422.636780,639.067505 412.514923,631.456543 
z"/>
<path fill="#00AF05" opacity="1.000000" stroke="none" 
	d="
M390.209747,736.127014 
	C388.720215,737.450195 387.397949,739.642395 385.716034,739.966003 
	C361.329590,744.659607 338.094696,753.101868 314.852692,761.504517 
	C312.025024,762.526855 310.193970,762.027100 307.635925,760.576904 
	C300.324310,756.431763 292.676941,752.878845 284.893829,748.958069 
	C288.329865,747.649414 292.075928,746.222717 296.122314,745.196289 
	C297.598236,746.669556 298.607361,748.190125 299.990601,748.704529 
	C301.807465,749.380127 303.921478,749.243286 305.903412,749.490662 
	C313.995911,750.500671 322.078339,751.604370 330.187683,752.451172 
	C331.343201,752.571777 332.626373,751.469910 333.850464,750.933838 
	C332.889679,750.025085 332.024994,748.966125 330.930786,748.265625 
	C330.307404,747.866516 329.305420,748.081726 328.480560,747.970825 
	C318.592377,746.641724 308.705444,745.303406 298.818176,743.967468 
	C305.957001,741.843079 313.095825,739.718689 320.817322,737.892578 
	C322.590668,738.898682 323.711548,740.039368 324.983185,740.244385 
	C333.479462,741.613770 341.997070,742.871155 350.537018,743.928406 
	C351.887848,744.095642 353.386719,743.066772 354.817139,742.590942 
	C353.521027,741.669922 352.328033,740.177429 350.911896,739.921936 
	C342.611237,738.424438 334.258484,737.216003 325.923279,735.910034 
	C329.984894,733.090393 334.046478,730.270752 338.657104,727.272766 
	C340.320953,727.393616 341.420197,727.783447 342.553009,727.978333 
	C358.435883,730.710083 374.323395,733.415283 390.209747,736.127014 
z"/>
<path fill="#00AF02" opacity="1.000000" stroke="none" 
	d="
M343.844360,710.758606 
	C346.717224,703.778625 348.756348,696.278198 352.696930,689.964661 
	C356.654541,683.623779 363.288300,681.899048 369.818268,685.371765 
	C377.485779,689.449524 384.394196,695.001343 391.406891,700.216248 
	C392.534393,701.054626 392.760864,703.443359 392.925446,705.161133 
	C393.194000,707.965149 393.068878,710.806946 392.589905,714.158569 
	C375.994781,713.375793 359.919556,712.067200 343.844360,710.758606 
z"/>
<path fill="#CC0000" opacity="1.000000" stroke="none" 
	d="
M252.250946,521.292297 
	C258.103027,514.735229 263.690979,508.418640 269.715912,501.608063 
	C275.634033,502.405365 279.149414,507.236115 277.360107,514.513916 
	C273.997040,528.192627 264.051117,535.540588 251.501465,539.902893 
	C244.361221,542.384827 237.098267,542.387085 230.118576,539.017456 
	C228.377625,538.176941 226.791656,537.015381 226.050766,536.562073 
	C234.661697,531.572205 243.324249,526.552490 252.250946,521.292297 
z"/>
<path fill="#00B107" opacity="1.000000" stroke="none" 
	d="
M340.931763,723.056641 
	C341.552185,720.532043 342.172668,718.007385 343.370422,715.195190 
	C360.335632,716.339661 376.723602,717.771667 393.111511,719.203613 
	C392.729553,723.178284 392.347565,727.152893 391.515564,731.503052 
	C387.494659,731.242737 383.925049,730.599915 380.352753,729.972412 
	C367.212891,727.664307 354.072174,725.361511 340.931763,723.056641 
z"/>
<path fill="#00F9EE" opacity="1.000000" stroke="none" 
	d="
M256.751526,746.743408 
	C245.432404,744.806213 234.515823,742.898193 223.599045,740.991333 
	C222.619675,740.820251 221.494125,740.904602 220.691193,740.434875 
	C219.338104,739.643188 218.189270,738.502380 216.954498,737.508423 
	C218.374741,737.056030 219.886505,736.029480 221.201218,736.239075 
	C236.746948,738.717102 252.272293,741.329041 267.769623,744.092834 
	C268.972534,744.307373 269.924744,745.927490 271.001831,747.261841 
	C266.391449,747.343872 261.772705,747.058411 256.751526,746.743408 
z"/>
<path fill="#00F9F0" opacity="1.000000" stroke="none" 
	d="
M340.601257,723.120850 
	C354.072174,725.361511 367.212891,727.664307 380.352753,729.972412 
	C383.925049,730.599915 387.494659,731.242737 391.450562,731.916870 
	C391.485931,733.286682 391.136292,734.618042 390.498199,736.038208 
	C374.323395,733.415283 358.435883,730.710083 342.553009,727.978333 
	C341.420197,727.783447 340.320953,727.393616 338.866821,726.971436 
	C339.108612,725.627319 339.689697,724.406189 340.601257,723.120850 
z"/>
<path fill="#00F9F0" opacity="1.000000" stroke="none" 
	d="
M393.471924,719.153687 
	C376.723602,717.771667 360.335632,716.339661 343.514709,714.830505 
	C343.167725,713.523438 343.253754,712.293518 343.592102,710.911133 
	C359.919556,712.067200 375.994781,713.375793 392.550293,714.659363 
	C394.175354,715.098572 395.320068,715.562805 396.731201,716.231934 
	C396.811005,716.682617 396.752441,716.955933 396.909576,717.452759 
	C395.942261,718.133789 394.887268,718.618774 393.471924,719.153687 
z"/>
<path fill="#00FAF0" opacity="1.000000" stroke="none" 
	d="
M272.698364,719.051819 
	C286.267303,721.626465 299.603821,724.239258 312.887756,727.096802 
	C314.402344,727.422607 315.621918,729.120056 316.978271,730.181396 
	C315.394165,730.508972 313.714294,731.354675 312.240967,731.082581 
	C299.857056,728.794800 287.500183,726.354248 275.167908,723.801575 
	C273.717834,723.501465 272.465302,722.246826 271.028503,721.051758 
	C271.440674,720.166809 271.945526,719.664673 272.698364,719.051819 
z"/>
<path fill="#00FAF0" opacity="1.000000" stroke="none" 
	d="
M279.294250,708.446167 
	C280.919312,707.877869 282.595001,706.834473 284.172180,706.966675 
	C296.447144,707.995117 308.712372,709.167175 320.953583,710.536804 
	C322.528107,710.712952 323.947296,712.277771 325.438446,713.199280 
	C323.731903,713.731140 321.973633,714.847351 320.327026,714.701660 
	C308.056854,713.615845 295.804260,712.320862 283.560333,710.963501 
	C282.234619,710.816467 280.999359,709.853394 279.489410,708.958496 
	C279.256653,708.648254 279.299225,708.515625 279.294250,708.446167 
z"/>
<path fill="#00F9EC" opacity="1.000000" stroke="none" 
	d="
M298.581299,744.017456 
	C308.705444,745.303406 318.592377,746.641724 328.480560,747.970825 
	C329.305420,748.081726 330.307404,747.866516 330.930786,748.265625 
	C332.024994,748.966125 332.889679,750.025085 333.850464,750.933838 
	C332.626373,751.469910 331.343201,752.571777 330.187683,752.451172 
	C322.078339,751.604370 313.995911,750.500671 305.903412,749.490662 
	C303.921478,749.243286 301.807465,749.380127 299.990601,748.704529 
	C298.607361,748.190125 297.598236,746.669556 296.547089,745.206726 
	C297.229126,744.567078 297.786774,744.317261 298.581299,744.017456 
z"/>
<path fill="#00FAF0" opacity="1.000000" stroke="none" 
	d="
M255.499817,727.989868 
	C264.712036,730.307617 273.533844,732.631470 282.355621,734.955444 
	C283.319092,735.209290 284.412750,735.259583 285.212555,735.770081 
	C286.199860,736.400208 286.942810,737.413086 287.791321,738.260498 
	C286.583893,738.783142 285.249512,739.934143 284.191040,739.720154 
	C279.474396,738.766602 274.842102,737.401001 270.168945,736.225769 
	C264.528748,734.807312 258.865540,733.478027 253.243057,731.993530 
	C252.196747,731.717224 251.296036,730.889465 250.122711,729.983276 
	C251.648010,729.098877 253.378708,728.547424 255.499817,727.989868 
z"/>
<path fill="#00FAEF" opacity="1.000000" stroke="none" 
	d="
M325.575623,735.940430 
	C334.258484,737.216003 342.611237,738.424438 350.911896,739.921936 
	C352.328033,740.177429 353.521027,741.669922 354.817139,742.590942 
	C353.386719,743.066772 351.887848,744.095642 350.537018,743.928406 
	C341.997070,742.871155 333.479462,741.613770 324.983185,740.244385 
	C323.711548,740.039368 322.590668,738.898682 321.235352,737.812927 
	C322.456421,736.946899 323.842163,736.458923 325.575623,735.940430 
z"/>
<path fill="#FBD400" opacity="1.000000" stroke="none" 
	d="
M10.074249,379.922302 
	C9.716359,379.870361 9.516630,379.664307 9.316910,379.458252 
	C9.586185,379.366547 9.855452,379.274841 10.322831,379.308533 
	C10.520945,379.433929 10.232410,379.768219 10.074249,379.922302 
z"/>
<path fill="#0F0808" opacity="1.000000" stroke="none" 
	d="
M373.674042,212.691360 
	C372.036713,234.928497 367.827545,256.047089 356.759338,275.180939 
	C348.211487,289.957825 336.863068,301.395264 318.949188,304.184296 
	C294.266724,308.027039 276.428467,293.675812 275.048889,268.624969 
	C273.568512,241.743240 282.139709,217.482513 295.114258,194.553894 
	C304.309845,178.303436 315.623810,163.788834 332.249207,154.326904 
	C334.828400,152.859024 337.638306,151.719559 340.454254,150.758698 
	C349.877960,147.543091 357.297363,150.003418 363.020874,158.245209 
	C369.387299,167.412827 371.661652,178.016907 372.805847,188.802628 
	C373.628143,196.553680 373.435120,204.412445 373.674042,212.691360 
M323.162384,298.992371 
	C334.829376,295.708069 343.221954,288.090729 349.758179,278.320465 
	C362.110229,259.856812 367.215088,238.988052 368.900391,217.201660 
	C370.150269,201.044693 369.812256,184.914291 364.007507,169.442154 
	C357.800781,152.898529 348.718018,149.634766 333.537720,158.482559 
	C319.636322,166.584961 309.729065,178.631561 301.535217,192.107727 
	C287.950958,214.449326 278.716675,238.298141 279.107635,264.916321 
	C279.498810,291.550507 297.314758,305.470367 323.162384,298.992371 
z"/>
<path fill="#0E0707" opacity="1.000000" stroke="none" 
	d="
M235.366623,282.961090 
	C222.949173,279.601227 214.738464,269.581726 212.950165,256.657257 
	C210.963516,242.299393 214.351395,228.835083 219.683670,215.799683 
	C228.429779,194.418854 239.091125,174.129166 255.719986,157.605820 
	C261.686829,151.676849 268.328827,146.741745 276.710785,144.662033 
	C290.250183,141.302628 299.245789,149.396698 295.234650,162.594162 
	C288.519653,184.687805 280.808563,206.487091 273.161072,228.285492 
	C269.200104,239.575912 264.811584,250.747726 259.953674,261.678680 
	C257.557343,267.070740 254.026962,272.088409 250.331619,276.736359 
	C246.786484,281.195374 241.776993,283.562500 235.366623,282.961090 
M287.677643,175.089676 
	C288.853180,170.594910 290.181396,166.133545 291.173615,161.598648 
	C293.481445,151.050858 288.227753,146.167511 277.583435,148.857697 
	C268.828705,151.070328 262.202942,156.627914 256.304718,163.029358 
	C240.639267,180.031448 230.158707,200.142334 222.058868,221.579056 
	C218.086105,232.093201 215.821777,242.967148 216.987030,254.305634 
	C217.816711,262.378723 220.938248,269.367035 227.261597,274.676331 
	C234.487595,280.743500 241.862900,280.516541 247.764587,273.184174 
	C251.564651,268.462860 255.035904,263.113739 257.179749,257.484375 
	C267.506989,230.366745 277.333069,203.058258 287.677643,175.089676 
z"/>
<path fill="#080000" opacity="1.000000" stroke="none" 
	d="
M234.854858,368.126038 
	C241.391846,375.030304 247.353790,382.034912 254.060013,388.234467 
	C274.982391,407.576263 299.450348,411.144623 326.092163,403.234497 
	C343.517975,398.060608 359.281128,389.689514 373.127594,377.788330 
	C380.898987,371.108734 387.252380,370.168793 394.934692,374.653015 
	C396.241150,375.415588 396.705536,377.620850 397.558960,379.159607 
	C395.837128,379.526520 393.695435,380.734863 392.463409,380.120117 
	C385.821381,376.806030 381.063995,379.312439 375.847626,383.635620 
	C358.272095,398.201599 338.373749,408.226471 315.714386,412.152313 
	C290.244415,416.565186 267.848175,410.102600 249.064240,392.262054 
	C242.196243,385.739014 235.896774,378.606750 229.484787,371.617676 
	C224.523941,366.210388 218.862793,362.207184 211.612564,360.352783 
	C209.993958,359.938751 208.886292,357.527161 207.543396,356.035248 
	C209.543747,355.489655 211.701355,354.164642 213.517670,354.531097 
	C222.164459,356.275879 229.002350,361.167847 234.854858,368.126038 
z"/>
<path fill="#0B0000" opacity="1.000000" stroke="none" 
	d="
M283.538757,345.682007 
	C274.129608,340.209564 265.273926,339.293335 256.000214,345.476746 
	C253.814789,346.933960 249.956543,346.612579 247.050735,346.090820 
	C242.505173,345.274658 238.194931,343.004791 233.644333,342.387451 
	C221.643127,340.759338 215.865494,332.899536 212.606339,322.403320 
	C207.630371,306.377991 214.816666,290.949097 229.201996,287.635315 
	C242.595398,284.549957 254.360977,289.815735 265.598236,296.414917 
	C266.245117,296.794800 266.382599,298.042145 266.757141,298.885773 
	C265.779053,299.263153 264.764496,300.011902 263.832397,299.920441 
	C262.755707,299.814819 261.788513,298.872070 260.709839,298.460327 
	C254.832138,296.216736 249.098145,293.267365 243.013977,291.954926 
	C223.597397,287.766571 211.129211,301.620209 216.651474,320.763092 
	C219.392319,330.264191 224.492538,337.245178 235.257812,338.217041 
	C236.237350,338.305420 237.235199,338.592896 238.146332,338.974609 
	C246.407974,342.435547 253.990143,342.663330 262.580597,338.258972 
	C266.925690,336.031189 273.753113,338.260284 279.372406,339.069824 
	C282.061432,339.457214 284.468292,341.833435 287.154541,342.201050 
	C289.663177,342.544281 293.386475,342.286713 294.726562,340.716217 
	C296.265472,338.912720 296.818695,334.943909 295.895508,332.698914 
	C294.741364,329.892273 291.543335,327.970612 289.449646,325.480225 
	C288.772186,324.674408 288.794464,323.280365 288.496643,322.155365 
	C289.550323,322.086823 290.812836,321.606628 291.623230,322.017700 
	C296.270599,324.374969 299.784515,327.921661 300.876709,333.147736 
	C303.045380,343.524689 294.993896,349.487366 283.538757,345.682007 
z"/>
<path fill="#0D0000" opacity="1.000000" stroke="none" 
	d="
M372.423645,119.398048 
	C383.426666,123.957260 390.239136,131.928925 394.239227,142.540070 
	C396.280029,147.953751 398.421173,153.330948 400.356537,158.781601 
	C400.654388,159.620453 400.086273,160.766800 399.918640,161.770935 
	C398.783600,161.363220 397.010223,161.272644 396.623047,160.493378 
	C394.864441,156.953796 393.152771,153.319443 392.059570,149.535629 
	C389.797821,141.707367 386.488373,134.545731 380.240906,129.131531 
	C368.033447,118.552261 350.365845,118.811470 336.629608,129.450790 
	C334.907684,130.784531 332.558563,131.308563 330.500031,132.207764 
	C331.681671,130.160553 332.393524,127.510963 334.121033,126.163704 
	C345.498199,117.290771 358.148895,114.563675 372.423645,119.398048 
z"/>
<path fill="#070C07" opacity="1.000000" stroke="none" 
	d="
M455.136536,722.883911 
	C454.358398,728.781433 454.308380,734.543091 452.536072,739.714539 
	C450.203278,746.521118 443.203918,750.392700 436.950592,749.787354 
	C429.335144,749.050171 423.180115,743.761475 421.400177,736.425781 
	C418.289124,723.603760 424.389923,713.195740 436.512329,710.644531 
	C445.706848,708.709473 452.814514,713.237671 455.136536,722.883911 
M429.236938,718.746338 
	C424.413422,723.953003 424.119232,730.039917 425.910309,736.461243 
	C427.312286,741.487549 431.455292,744.759399 436.779022,745.262024 
	C442.001526,745.755127 446.550140,743.683655 448.433929,738.638000 
	C450.020203,734.389160 450.784271,729.670532 451.006439,725.115662 
	C451.295868,719.182983 447.701752,714.922729 441.826660,714.924683 
	C437.813446,714.926025 433.800903,717.047424 429.236938,718.746338 
z"/>
<path fill="#FDFDFD" opacity="1.000000" stroke="none" 
	d="
M322.749603,299.067932 
	C297.314758,305.470367 279.498810,291.550507 279.107635,264.916321 
	C278.716675,238.298141 287.950958,214.449326 301.535217,192.107727 
	C309.729065,178.631561 319.636322,166.584961 333.537720,158.482559 
	C348.718018,149.634766 357.800781,152.898529 364.007507,169.442154 
	C369.812256,184.914291 370.150269,201.044693 368.900391,217.201660 
	C367.215088,238.988052 362.110229,259.856812 349.758179,278.320465 
	C343.221954,288.090729 334.829376,295.708069 322.749603,299.067932 
M328.717682,264.060760 
	C329.468628,256.993408 331.004456,249.900162 330.772278,242.865280 
	C330.480682,234.029449 326.370422,226.782059 317.384613,223.708832 
	C308.773071,220.763596 302.112457,224.733902 296.584564,230.827988 
	C287.511078,240.830811 282.792175,252.751907 283.082733,266.257355 
	C283.183289,270.932526 284.184387,275.957855 286.181793,280.153046 
	C292.039703,292.456635 306.173126,294.815704 316.131287,285.574738 
	C322.267212,279.880737 325.916626,272.674072 328.717682,264.060760 
z"/>
<path fill="#FBFBFB" opacity="1.000000" stroke="none" 
	d="
M287.507324,175.453598 
	C277.333069,203.058258 267.506989,230.366745 257.179749,257.484375 
	C255.035904,263.113739 251.564651,268.462860 247.764587,273.184174 
	C241.862900,280.516541 234.487595,280.743500 227.261597,274.676331 
	C220.938248,269.367035 217.816711,262.378723 216.987030,254.305634 
	C215.821777,242.967148 218.086105,232.093201 222.058868,221.579056 
	C230.158707,200.142334 240.639267,180.031448 256.304718,163.029358 
	C262.202942,156.627914 268.828705,151.070328 277.583435,148.857697 
	C288.227753,146.167511 293.481445,151.050858 291.173615,161.598648 
	C290.181396,166.133545 288.853180,170.594910 287.507324,175.453598 
M226.111954,263.224640 
	C231.847534,272.190491 236.886765,273.785034 243.544327,267.886841 
	C254.343445,258.319489 259.609497,246.030731 258.802490,231.584656 
	C258.312927,222.821396 252.719574,217.022171 244.444214,215.367233 
	C238.139374,214.106384 231.827759,217.344711 227.906937,224.787903 
	C221.497253,236.955841 219.840256,249.586212 226.111954,263.224640 
z"/>
<path fill="#F0FBF0" opacity="1.000000" stroke="none" 
	d="
M429.512512,718.483643 
	C433.800903,717.047424 437.813446,714.926025 441.826660,714.924683 
	C447.701752,714.922729 451.295868,719.182983 451.006439,725.115662 
	C450.784271,729.670532 450.020203,734.389160 448.433929,738.638000 
	C446.550140,743.683655 442.001526,745.755127 436.779022,745.262024 
	C431.455292,744.759399 427.312286,741.487549 425.910309,736.461243 
	C424.119232,730.039917 424.413422,723.953003 429.512512,718.483643 
z"/>
<path fill="#030303" opacity="1.000000" stroke="none" 
	d="
M328.550751,264.426971 
	C325.916626,272.674072 322.267212,279.880737 316.131287,285.574738 
	C306.173126,294.815704 292.039703,292.456635 286.181793,280.153046 
	C284.184387,275.957855 283.183289,270.932526 283.082733,266.257355 
	C282.792175,252.751907 287.511078,240.830811 296.584564,230.827988 
	C302.112457,224.733902 308.773071,220.763596 317.384613,223.708832 
	C326.370422,226.782059 330.480682,234.029449 330.772278,242.865280 
	C331.004456,249.900162 329.468628,256.993408 328.550751,264.426971 
M299.064575,252.383667 
	C300.538055,253.665970 302.091400,256.047058 303.464447,255.947281 
	C305.111572,255.827591 307.414703,253.870911 307.984741,252.211823 
	C308.963684,249.362640 309.051941,246.129517 309.077759,243.053894 
	C309.100952,240.283615 307.214294,239.517303 304.636475,239.923737 
	C299.743469,240.695190 297.699036,244.807190 299.064575,252.383667 
z"/>
<path fill="#050505" opacity="1.000000" stroke="none" 
	d="
M225.957550,262.882324 
	C219.840256,249.586212 221.497253,236.955841 227.906937,224.787903 
	C231.827759,217.344711 238.139374,214.106384 244.444214,215.367233 
	C252.719574,217.022171 258.312927,222.821396 258.802490,231.584656 
	C259.609497,246.030731 254.343445,258.319489 243.544327,267.886841 
	C236.886765,273.785034 231.847534,272.190491 225.957550,262.882324 
M232.635101,231.517822 
	C231.499207,236.491577 230.943542,241.518417 234.552017,245.685745 
	C235.665222,246.971375 237.998810,247.703033 239.765869,247.689331 
	C240.548386,247.683273 241.799637,245.257278 241.989853,243.817719 
	C242.508560,239.892181 243.051529,235.860214 242.668732,231.960358 
	C242.370346,228.920578 240.994934,223.670288 239.580246,223.491104 
	C235.357178,222.956177 234.091476,227.262527 232.635101,231.517822 
z"/>
<path fill="#F6F6F6" opacity="1.000000" stroke="none" 
	d="
M298.987793,251.994934 
	C297.699036,244.807190 299.743469,240.695190 304.636475,239.923737 
	C307.214294,239.517303 309.100952,240.283615 309.077759,243.053894 
	C309.051941,246.129517 308.963684,249.362640 307.984741,252.211823 
	C307.414703,253.870911 305.111572,255.827591 303.464447,255.947281 
	C302.091400,256.047058 300.538055,253.665970 298.987793,251.994934 
z"/>
<path fill="#F7F7F7" opacity="1.000000" stroke="none" 
	d="
M232.751862,231.125534 
	C234.091476,227.262527 235.357178,222.956177 239.580246,223.491104 
	C240.994934,223.670288 242.370346,228.920578 242.668732,231.960358 
	C243.051529,235.860214 242.508560,239.892181 241.989853,243.817719 
	C241.799637,245.257278 240.548386,247.683273 239.765869,247.689331 
	C237.998810,247.703033 235.665222,246.971375 234.552017,245.685745 
	C230.943542,241.518417 231.499207,236.491577 232.751862,231.125534 
z"/>
</svg>